<svg width="57" height="57" viewBox="0 0 57 57" fill="none" xmlns="http://www.w3.org/2000/svg">
<circle cx="28.5" cy="28.5" r="28.5" fill="#141414"/>
<path d="M18.4697 16.8105L18.6953 19.415C20.2676 17.4053 22.3799 16.4004 25.0322 16.4004C27.835 16.4004 29.7285 17.5146 30.7129 19.7432C32.2168 17.5146 34.3906 16.4004 37.2344 16.4004C41.7324 16.4004 44.043 19.1211 44.166 24.5625V39H37.2344V24.9932C37.2344 23.8584 37.043 23.0312 36.6602 22.5117C36.2773 21.9922 35.5801 21.7324 34.5684 21.7324C33.2012 21.7324 32.1826 22.3408 31.5127 23.5576L31.5332 23.8447V39H24.6016V25.0342C24.6016 23.8721 24.417 23.0312 24.0479 22.5117C23.6787 21.9922 22.9746 21.7324 21.9355 21.7324C20.6094 21.7324 19.5977 22.3408 18.9004 23.5576V39H11.9893V16.8105H18.4697Z" fill="#FCFCFC"/>
<circle cx="15.5" cy="38.5" r="4" fill="#FCFCFC" stroke="black"/>
</svg>
